<svg width="40" height="40" viewBox="0 0 40 40" fill="none" xmlns="http://www.w3.org/2000/svg">
<path fill-rule="evenodd" clip-rule="evenodd" d="M20 39C9.50659 39 1 30.4934 1 20C1 9.50659 9.50659 1 20 1C30.4934 1 39 9.50659 39 20C39 30.4934 30.4934 39 20 39ZM0 20C0 8.95431 8.95431 0 20 0C31.0457 0 40 8.95431 40 20C40 31.0457 31.0457 40 20 40C8.95431 40 0 31.0457 0 20ZM22.2218 10L25 10.0036L24.9916 13.8727L23.0034 13.8736C21.8899 13.8736 21.6874 14.3418 21.6874 15.2673V17.1918H24.8832L24.8857 21.2955H21.6874L21.684 30H17.784L17.7874 21.2955H15V17.1909H17.7874V14.9227C17.7874 11.9309 19.5277 10 22.2218 10Z" fill="#222021"/>
</svg>
