<svg width="100" height="108" fill="none" xmlns="http://www.w3.org/2000/svg"><path fill-rule="evenodd" clip-rule="evenodd" d="M39.525 21.62a62.04 62.04 0 0 1-.659-5.193c-.215-2.588-.082-5.195-.159-7.782-.033-1.098-.164-3.96-.111-4.37C39.076.686 41.972.137 42.819.04c.41-.059 4.617-.529 5.525 4.136a65.308 65.308 0 0 1 1.077 17.072 57.193 57.193 0 0 0 4.568 13.858c8.263 17.15 24.007 18.816 41.065 18.66 2.623-.04 4.802 2.018 4.94 4.625.136 2.627-1.816 4.9-4.428 5.136-9.535.92-26.452 8.565-32.3 16.523-1.224 1.666-1.936 5.684-2.877 9.624-1.314 5.468-2.877 10.878-4.627 13.152-.263.353-3.457 3.959-4.41 4.488-2.29 1.255-4.123.53-5.164-.137-1.042-.666-2.22-1.979-2.69-4.155-.493-2.274-.077-6.939-.154-7.939-.278-3.626-1.003-10.74-2.484-16.856-.798-3.293-1.649-6.33-3.056-7.84-5.212-5.586-13.545-4.763-20.562-3.842-.806.098-1.612.216-2.416.314A54.202 54.202 0 0 1 5.73 68.7C.89 69.27.093 64.821.05 64.526c-.09-.647-.425-3.979 3.224-5.311.398-.138 3.335-.785 4.466-1.04 1.576-.352 3.17-.626 4.77-.881 16.527-5.136 25.503-19.562 27.015-35.673Zm5.672 17.818c6.24 12.897 15.707 19.13 26.93 21.952h-.001c-7.008 3.665-13.382 8.252-16.76 12.858-1.283 1.745-2.46 5.253-3.52 9.193-.574-3.665-1.35-7.566-2.376-10.898-1.167-3.803-2.737-6.958-4.49-8.84-3.384-3.626-7.631-5.645-12.198-6.644 5.467-4.842 9.612-10.879 12.415-17.621Z" fill="#222021"/></svg>