<svg width="16" height="16" fill="none" xmlns="http://www.w3.org/2000/svg"><path fill-rule="evenodd" clip-rule="evenodd" d="M7.263 5.927A15.373 15.373 0 0 1 3.59 1.21a.694.694 0 0 0-.963-.308c-.345.196-.476.65-.292 1.018A16.942 16.942 0 0 0 6.36 7.087a.689.689 0 0 0 1.002-.101.784.784 0 0 0-.1-1.06Z" fill="#F8F8F8"/><path fill-rule="evenodd" clip-rule="evenodd" d="M6.453.794c.078 1.517.15 3.034.238 4.55.025.414.363.73.754.703.391-.026.69-.383.665-.796-.089-1.513-.16-3.027-.238-4.544-.022-.412-.36-.73-.75-.706-.391.023-.694.378-.669.793ZM11.731 1.101c-.91 1.45-1.941 2.787-2.979 4.139a.776.776 0 0 0 .103 1.055.682.682 0 0 0 .999-.11c1.067-1.385 2.126-2.763 3.064-4.254a.777.777 0 0 0-.202-1.04.688.688 0 0 0-.985.21Z" fill="#F8F8F8"/><path fill-rule="evenodd" clip-rule="evenodd" d="M15.256 6.49c-2.467.116-5.087.12-7.554-.045-.391-.023-.729.29-.754.706-.025.413.274.77.665.796 2.517.165 5.19.161 7.707.045.391-.019.697-.372.68-.785-.018-.413-.353-.736-.744-.717Z" fill="#F8F8F8"/><path fill-rule="evenodd" clip-rule="evenodd" d="M6.358 6.967c1.521 1.968 3.096 3.898 4.508 5.955a.69.69 0 0 0 .995.166.778.778 0 0 0 .156-1.048c-1.429-2.08-3.021-4.033-4.56-6.023a.685.685 0 0 0-1-.105.776.776 0 0 0-.1 1.055Z" fill="#F8F8F8"/><path fill-rule="evenodd" clip-rule="evenodd" d="M6.819 7.538c.398 2.05.508 4.01.536 6.087.004.413.328.743.719.74.394-.008.707-.346.7-.763-.029-2.174-.146-4.22-.562-6.368-.082-.406-.455-.669-.842-.582-.384.082-.633.48-.551.886Z" fill="#F8F8F8"/><path fill-rule="evenodd" clip-rule="evenodd" d="M6.883 7.373C5.73 9.806 5.137 12.51 3.903 14.89a.772.772 0 0 0 .285 1.018.692.692 0 0 0 .964-.297c1.24-2.395 1.841-5.114 3.004-7.566.174-.372.032-.823-.317-1.01-.352-.184-.778-.034-.956.338Z" fill="#F8F8F8"/><path fill-rule="evenodd" clip-rule="evenodd" d="M7.517 6.82c-2.293.429-4.583.624-6.89.913-.39.049-.668.42-.622.834.046.413.398.706.79.657 2.331-.29 4.65-.492 6.97-.924.385-.075.644-.466.577-.871-.072-.41-.438-.684-.825-.609Z" fill="#F8F8F8"/><path fill-rule="evenodd" clip-rule="evenodd" d="M9.112 5.68c-.473-.023-.92-.057-1.383-.129-.39-.06-.75.226-.807.635-.057.41.214.792.601.852a13.79 13.79 0 0 0 1.525.14c.391.018.725-.301.74-.718.017-.413-.285-.762-.676-.78Z" fill="#F8F8F8"/></svg>