<svg width="64" height="72" fill="none" xmlns="http://www.w3.org/2000/svg"><path fill-rule="evenodd" clip-rule="evenodd" d="M21.413 67.19c-6.11-1.76-12.509-2.65-18.715-3.463-1.337-.17-2.578.781-2.674 2.123-.19 1.342.765 2.57 2.006 2.74 6.016.784 12.222 1.622 18.046 3.317 1.242.368 2.579-.39 2.961-1.691.382-1.301-.382-2.657-1.623-3.026ZM39.937 42.224C30.102 31.918 19.026 22.94 9.382 12.357c-.86-.989-2.388-1.041-3.342-.119-.955.924-1.05 2.477-.096 3.465C15.59 26.316 26.664 35.325 36.5 45.661a2.417 2.417 0 0 0 3.437.03c.86-.949.955-2.502 0-3.467ZM58.367 2.584l.859 17.697c0 1.351 1.146 2.394 2.483 2.329C63.046 22.543 64 21.393 64 20.04l-.859-17.722C63.046.967 61.9-.07 60.563.004c-1.241.073-2.292 1.23-2.196 2.58Z" fill="#FEE400"/></svg>