<svg width="44" height="22" fill="none" xmlns="http://www.w3.org/2000/svg"><path fill-rule="evenodd" clip-rule="evenodd" d="M41.99 2.975c-8.324 15.357-24.952 21.6-40.395 12.955a1.077 1.077 0 0 0-1.457.396 1.06 1.06 0 0 0 .406 1.448C17.097 27.05 34.95 20.437 43.873 3.982c.279-.513.084-1.16-.436-1.44a1.082 1.082 0 0 0-1.447.433Z" fill="#222021"/><path d="M14.59 9.343c1.72 0 3.114-1.383 3.114-3.089s-1.394-3.09-3.113-3.09c-1.72 0-3.113 1.384-3.113 3.09s1.393 3.089 3.113 3.089ZM27.48 6.057c1.686 0 3.052-1.356 3.052-3.028C30.532 1.356 29.166 0 27.48 0s-3.053 1.356-3.053 3.029c0 1.672 1.367 3.028 3.053 3.028Z" fill="#222021"/></svg>