<svg width="40" height="40" viewBox="0 0 40 40" fill="none" xmlns="http://www.w3.org/2000/svg">
<path fill-rule="evenodd" clip-rule="evenodd" d="M20 39C9.50659 39 1 30.4934 1 20C1 9.50659 9.50659 1 20 1C30.4934 1 39 9.50659 39 20C39 30.4934 30.4934 39 20 39ZM0 20C0 8.95431 8.95431 0 20 0C31.0457 0 40 8.95431 40 20C40 31.0457 31.0457 40 20 40C8.95431 40 0 31.0457 0 20ZM27.644 14.5297C28.4739 14.4326 29.2651 14.2154 30 13.8941C29.4518 14.7042 28.7556 15.415 27.9539 15.9847C27.9609 16.1569 27.9644 16.3325 27.9644 16.5082C27.9644 21.8462 23.8381 28 16.2898 28C13.9737 28 11.816 27.3309 10 26.1868C10.3205 26.2238 10.648 26.2423 10.979 26.2423C12.9007 26.2423 14.671 25.5962 16.075 24.5122C14.2789 24.481 12.7646 23.3127 12.2422 21.7086C12.4922 21.756 12.7505 21.7803 13.0146 21.7803C13.3891 21.7803 13.7518 21.7329 14.0958 21.6381C12.2175 21.2683 10.803 19.6354 10.803 17.6777V17.628C11.357 17.9285 11.991 18.1122 12.6624 18.1319C11.5613 17.4073 10.837 16.1707 10.837 14.7701C10.837 14.0305 11.0389 13.3359 11.3923 12.7373C13.4173 15.1838 16.4401 16.7902 19.8503 16.9589C19.7799 16.6631 19.7447 16.3556 19.7447 16.039C19.7447 13.8086 21.5819 12 23.8463 12C25.0273 12 26.0944 12.49 26.841 13.2747C27.7778 13.0944 28.6547 12.7581 29.4483 12.2958C29.1419 13.2389 28.4915 14.0305 27.644 14.5297Z" fill="#222021"/>
</svg>
